<svg width="40" height="40" viewBox="0 0 40 40" fill="none" xmlns="http://www.w3.org/2000/svg">
<path d="M20.0005 6.32689C16.8379 6.32695 13.7731 7.4236 11.3284 9.42999C8.88372 11.4364 7.21032 14.2284 6.59337 17.3302C5.97641 20.4321 6.45407 23.6519 7.94496 26.4411C9.43584 29.2303 11.8477 31.4162 14.7696 32.6265C17.6915 33.8368 20.9427 33.9964 23.9691 33.0784C26.9955 32.1603 29.61 30.2212 31.3671 27.5916C33.1241 24.9619 33.915 21.8044 33.605 18.657C33.295 15.5096 31.9033 12.5671 29.667 10.3308C28.399 9.05942 26.8923 8.05122 25.2334 7.3641C23.5745 6.67698 21.7961 6.32449 20.0005 6.32689ZM28.7834 28.7798C26.7518 30.8105 24.0789 32.0741 21.2202 32.3552C18.3614 32.6363 15.4937 31.9175 13.1055 30.3213C10.7172 28.7251 8.95634 26.3503 8.12274 23.6014C7.28914 20.8524 7.43443 17.8995 8.53384 15.2457C9.63326 12.5919 11.6188 10.4014 14.1522 9.04734C16.6855 7.69329 19.61 7.25949 22.4273 7.81985C25.2447 8.38021 27.7806 9.90005 29.603 12.1204C31.4254 14.3408 32.4217 17.1244 32.4219 19.997C32.424 21.6284 32.1036 23.2442 31.4792 24.7515C30.8547 26.2587 29.9386 27.6277 28.7834 28.7798ZM28.872 24.3928C28.1199 25.7431 27.0497 26.8896 25.7542 27.7326C24.4587 28.5756 22.977 29.0897 21.4378 29.2303C19.8985 29.3709 18.3482 29.1337 16.9214 28.5393C15.4946 27.945 14.2344 27.0114 13.2502 25.8197C12.266 24.6279 11.5875 23.2139 11.2735 21.7005C10.9596 20.1871 11.0198 18.6199 11.4488 17.135C11.8778 15.6501 12.6628 14.2923 13.7355 13.1795C14.8082 12.0667 16.1362 11.2325 17.6044 10.7493C17.6832 10.7232 17.7676 10.7196 17.8483 10.739C17.929 10.7583 18.0027 10.7997 18.0612 10.8586C18.1196 10.9175 18.1605 10.9915 18.1791 11.0724C18.1978 11.1532 18.1936 11.2377 18.1669 11.3162C15.9145 17.9953 21.6017 24.6547 28.4202 23.7328C28.5026 23.7212 28.5865 23.7328 28.6626 23.7664C28.7387 23.8 28.8039 23.8542 28.8509 23.9228C28.8978 23.9914 28.9247 24.0718 28.9284 24.1549C28.9321 24.238 28.9126 24.3204 28.872 24.393V24.3928ZM19.3761 3.59635V0.62447C19.3761 0.45885 19.4419 0.300014 19.559 0.182903C19.6761 0.0657922 19.8349 0 20.0005 0C20.1662 0 20.325 0.0657922 20.4421 0.182903C20.5592 0.300014 20.625 0.45885 20.625 0.62447V3.59635C20.625 3.76197 20.5592 3.9208 20.4421 4.03792C20.325 4.15503 20.1662 4.22082 20.0005 4.22082C19.8349 4.22082 19.6761 4.15503 19.559 4.03792C19.4419 3.9208 19.3761 3.76197 19.3761 3.59635ZM27.6629 5.47867L29.1488 2.90758C29.1888 2.83488 29.2429 2.77091 29.308 2.71941C29.373 2.66791 29.4477 2.62993 29.5277 2.60769C29.6076 2.58545 29.6912 2.5794 29.7735 2.5899C29.8558 2.6004 29.9352 2.62723 30.007 2.66883C30.0788 2.71042 30.1416 2.76594 30.1917 2.83212C30.2417 2.8983 30.2781 2.97382 30.2986 3.05423C30.319 3.13465 30.3232 3.21834 30.3109 3.30041C30.2986 3.38247 30.2701 3.46125 30.2269 3.53213L28.7413 6.10321C28.7013 6.17591 28.6472 6.23989 28.5821 6.29139C28.5171 6.34288 28.4424 6.38087 28.3624 6.40311C28.2825 6.42535 28.1989 6.43139 28.1166 6.42089C28.0343 6.41039 27.9549 6.38356 27.8831 6.34197C27.8113 6.30037 27.7485 6.24485 27.6984 6.17867C27.6484 6.11249 27.612 6.03698 27.5915 5.95656C27.5711 5.87615 27.5669 5.79245 27.5792 5.71039C27.5915 5.62832 27.62 5.54954 27.6632 5.47867H27.6629ZM33.6665 12.109C33.5839 11.9656 33.5615 11.7954 33.6043 11.6356C33.647 11.4758 33.7514 11.3394 33.8945 11.2564L36.4678 9.77042C36.5388 9.72942 36.6171 9.70279 36.6984 9.69205C36.7796 9.68132 36.8622 9.6867 36.9414 9.70788C37.0205 9.72906 37.0948 9.76563 37.1598 9.8155C37.2248 9.86536 37.2794 9.92755 37.3204 9.99852C37.3614 10.0695 37.3881 10.1478 37.3988 10.2291C37.4095 10.3103 37.4042 10.3929 37.383 10.4721C37.3618 10.5513 37.3252 10.6255 37.2754 10.6905C37.2255 10.7556 37.1633 10.8101 37.0923 10.8512L34.519 12.3349C34.3759 12.4176 34.2059 12.4403 34.0461 12.3979C33.8863 12.3556 33.7498 12.2517 33.6665 12.109ZM9.7737 3.53213C9.73055 3.46125 9.70198 3.38247 9.68968 3.30041C9.67738 3.21834 9.68159 3.13465 9.70207 3.05423C9.72255 2.97382 9.75889 2.8983 9.80895 2.83212C9.85901 2.76594 9.92178 2.71042 9.99359 2.66883C10.0654 2.62723 10.1448 2.6004 10.2271 2.5899C10.3094 2.5794 10.393 2.58545 10.4729 2.60769C10.5529 2.62993 10.6276 2.66791 10.6927 2.71941C10.7577 2.77091 10.8118 2.83488 10.8519 2.90758L12.3378 5.47867C12.381 5.54954 12.4096 5.62832 12.4219 5.71039C12.4342 5.79245 12.43 5.87615 12.4095 5.95656C12.389 6.03698 12.3527 6.11249 12.3026 6.17867C12.2525 6.24485 12.1898 6.30037 12.118 6.34197C12.0462 6.38356 11.9668 6.41039 11.8844 6.42089C11.8021 6.43139 11.7186 6.42535 11.6386 6.40311C11.5587 6.38087 11.484 6.34288 11.4189 6.29139C11.3538 6.23989 11.2997 6.17591 11.2597 6.10321L9.7737 3.53213ZM40 19.9972C40.0003 20.1631 39.9346 20.3223 39.8175 20.4398C39.7004 20.5573 39.5414 20.6235 39.3755 20.6238H36.4036C36.2377 20.6238 36.0786 20.5579 35.9612 20.4406C35.8439 20.3233 35.778 20.1642 35.778 19.9983C35.778 19.8324 35.8439 19.6733 35.9612 19.5559C36.0786 19.4386 36.2377 19.3727 36.4036 19.3727H39.3755C39.5411 19.3729 39.6999 19.4387 39.8169 19.5558C39.934 19.6729 39.9999 19.8316 40 19.9972ZM30.2274 36.4644C30.2707 36.5353 30.2994 36.6141 30.3118 36.6963C30.3242 36.7784 30.32 36.8622 30.2996 36.9427C30.2791 37.0232 30.2428 37.0988 30.1927 37.165C30.1426 37.2313 30.0798 37.2868 30.0079 37.3285C29.936 37.3701 29.8566 37.3969 29.7742 37.4074C29.6918 37.4179 29.6081 37.4118 29.5281 37.3895C29.4481 37.3671 29.3734 37.3291 29.3083 37.2774C29.2433 37.2258 29.1892 37.1617 29.1492 37.0889L27.6633 34.5179C27.5845 34.3752 27.5646 34.2072 27.6081 34.0501C27.6515 33.8929 27.7548 33.759 27.8958 33.6771C28.0368 33.5951 28.2042 33.5716 28.3623 33.6116C28.5204 33.6517 28.6565 33.752 28.7415 33.8912L30.2274 36.4644ZM2.68289 10.0008C2.72339 9.9299 2.77749 9.86767 2.84208 9.8177C2.90668 9.76772 2.9805 9.73098 3.05931 9.70958C3.13813 9.68818 3.22039 9.68253 3.30139 9.69298C3.38239 9.70342 3.46053 9.72973 3.53135 9.77042L6.10462 11.2564C6.17743 11.296 6.24159 11.3499 6.29331 11.4147C6.34503 11.4795 6.38328 11.5539 6.4058 11.6337C6.42832 11.7135 6.43467 11.797 6.42446 11.8793C6.41425 11.9616 6.3877 12.041 6.34637 12.1128C6.30503 12.1847 6.24975 12.2476 6.18376 12.2978C6.11777 12.348 6.04242 12.3845 5.96212 12.4051C5.88183 12.4258 5.79822 12.4302 5.7162 12.4181C5.63418 12.406 5.55541 12.3776 5.48452 12.3346L2.91102 10.8512C2.76801 10.7686 2.66364 10.6327 2.62086 10.4732C2.57808 10.3138 2.60039 10.1438 2.68289 10.0008ZM37.3182 29.998C37.2774 30.0689 37.223 30.131 37.1581 30.1808C37.0932 30.2305 37.0191 30.2669 36.94 30.2879C36.861 30.3089 36.7785 30.3141 36.6975 30.3031C36.6165 30.2921 36.5384 30.2652 36.4678 30.2239L33.8945 28.7402C33.8217 28.7002 33.7576 28.6461 33.706 28.5811C33.6544 28.516 33.6163 28.4413 33.594 28.3613C33.5716 28.2813 33.5655 28.1976 33.576 28.1152C33.5865 28.0328 33.6133 27.9534 33.655 27.8815C33.6966 27.8096 33.7522 27.7468 33.8184 27.6967C33.8847 27.6466 33.9603 27.6103 34.0408 27.5898C34.1213 27.5694 34.205 27.5652 34.2872 27.5776C34.3693 27.59 34.4481 27.6187 34.519 27.662L37.0923 29.1457C37.2351 29.229 37.339 29.3655 37.3814 29.5252C37.4237 29.685 37.401 29.855 37.3182 29.998ZM20.625 36.4002V39.3721C20.625 39.5377 20.5592 39.6966 20.4421 39.8137C20.325 39.9308 20.1662 39.9966 20.0005 39.9966C19.8349 39.9966 19.6761 39.9308 19.559 39.8137C19.4419 39.6966 19.3761 39.5377 19.3761 39.3721V36.4002C19.3761 36.2346 19.4419 36.0758 19.559 35.9586C19.6761 35.8415 19.8349 35.7757 20.0005 35.7757C20.1662 35.7757 20.325 35.8415 20.4421 35.9586C20.5592 36.0758 20.625 36.2346 20.625 36.4002ZM3.59971 20.6238H0.625564C0.459654 20.6238 0.300539 20.5579 0.183223 20.4406C0.0659074 20.3233 0 20.1642 0 19.9983C0 19.8324 0.0659074 19.6733 0.183223 19.5559C0.300539 19.4386 0.459654 19.3727 0.625564 19.3727H3.59971C3.76562 19.3727 3.92473 19.4386 4.04205 19.5559C4.15936 19.6733 4.22527 19.8324 4.22527 19.9983C4.22527 20.1642 4.15936 20.3233 4.04205 20.4406C3.92473 20.5579 3.76562 20.6238 3.59971 20.6238ZM12.3383 34.5179L10.8523 37.0889C10.8124 37.1617 10.7583 37.2258 10.6932 37.2774C10.6282 37.3291 10.5534 37.3671 10.4734 37.3895C10.3934 37.4118 10.3098 37.4179 10.2274 37.4074C10.145 37.3969 10.0655 37.3701 9.99365 37.3285C9.92178 37.2868 9.85896 37.2313 9.80887 37.165C9.75879 37.0988 9.72246 37.0232 9.70201 36.9427C9.68156 36.8622 9.67741 36.7784 9.6898 36.6963C9.7022 36.6141 9.73088 36.5353 9.77417 36.4644L11.2602 33.8912C11.3451 33.752 11.4813 33.6517 11.6393 33.6116C11.7974 33.5716 11.9649 33.5951 12.1059 33.6771C12.2468 33.759 12.3501 33.8929 12.3935 34.0501C12.437 34.2072 12.4172 34.3752 12.3383 34.5179ZM6.33463 27.8897C6.41676 28.0331 6.43865 28.2031 6.39548 28.3626C6.3523 28.5221 6.24761 28.6578 6.10439 28.7402L3.53135 30.2239C3.38866 30.3016 3.22124 30.3204 3.06489 30.2762C2.90853 30.2321 2.77565 30.1285 2.69465 29.9877C2.61365 29.8469 2.59096 29.6799 2.63144 29.5226C2.67191 29.3652 2.77234 29.23 2.91125 29.1457L5.48452 27.6617C5.62751 27.5793 5.79738 27.557 5.95678 27.5998C6.11619 27.6425 6.25209 27.7468 6.33463 27.8897Z" fill="#FDBF00"/>
</svg>
